<svg height="512" viewBox="0 0 52 58" width="512" xmlns="http://www.w3.org/2000/svg"><g id="002---Tropical-Leaf" fill="none" transform="translate(-1 -1)"><path id="Shape" d="m40.63 1.01c-3.5529562-.16893752-7.0201899 1.12397707-9.5950733 3.57795617s-4.0329269 5.85507403-4.0349267 9.41204383c-.0022863-3.5568789-1.4604184-6.95780258-4.0352361-9.41171912-2.5748178-2.45391655-6.0418846-3.74692795-9.5947639-3.57828088-7.01646085.47110806-12.44466985 6.33813751-12.37 13.37v3.36c-.003062.3846947.21613427.7366154.56275579.9035072s.75842357.1187852 1.05724421-.1235072c3.83641443-3.1902056 8.5661278-5.1149265 13.54-5.51.7807001-.0502598 1.4980752.4293566 1.75 1.17v.01c-.0446582 1.074922-.7491852 2.0103109-1.77 2.35-5.5217193 1.5076746-10.60518735 4.3082096-14.83 8.17-.20024492.1889244-.30953536.4548645-.3.73.01492224 1.5857139.1587292 3.1675905.43 4.73.07042291.3671629.34205596.663129.70184477.7647164.35978881.1015875.74610208-.0086056.99815523-.2847164 3.47250569-3.7991713 8.0641454-6.3944459 13.11-7.41.857239-.144713 1.6872611.3745165 1.932153 1.2086798.244892.8341634-.1727294 1.7196736-.972153 2.0613202-5.735 2.25-9.788 4.606-13.96 10.16-.16432648.2243029-.22608356.507659-.17.78.48399118 2.4639476 1.38348079 4.8276439 2.66 6.99.21369873.3114387.58463848.4759002.95891868.4251503.37428021-.0507499.68803184-.3080508.81108132-.6651503 2.04605517-6.2754201 7.0073044-11.169575 13.31-13.13.8720516-.2698015 1.7989923.2114947 2.08 1.08.2990564.8069514-.0477864 1.7104555-.81 2.11-5.1635432 2.8458091-9.0052079 7.6030107-10.7 13.25-.1.34-.19.68-.28 1.03-.0773196.3226975.0086387.6627933.23.91 6.137 6.991 11.1 4.529 14.9 9.19.1865107.227938.4654801.3601286.76.3601286s.5734893-.1321906.76-.3601286c3.773-4.624 8.8-2.237 14.9-9.19.2213613-.2472067.3073196-.5873025.23-.91-.09-.35-.18-.69-.28-1.03-1.6947921-5.6469893-5.5364568-10.4041909-10.7-13.25-.7446242-.3949664-1.0921488-1.272254-.82-2.07.1256664-.4276507.4176514-.7870062.8105274-.9975426s.8537942-.2546506 1.2794726-.1224574c6.3026956 1.960425 11.2639448 6.8545799 13.31 13.13.1230495.3570995.4368011.6144004.8110813.6651503s.74522-.1137116.9589187-.4251503c1.2765192-2.1623561 2.1760088-4.5260524 2.66-6.99.0626685-.3243356-.0340267-.6590498-.26-.9-3.4959166-4.6781016-8.3340012-8.1802191-13.87-10.04-.7994236-.3416466-1.217045-1.2271568-.972153-2.0613202.2448919-.8341633 1.074914-1.3533928 1.932153-1.2086798 5.0458546 1.0155541 9.6374943 3.6108287 13.11 7.41.2520531.2761108.6383664.3863039.9981552.2847164.3597888-.1015874.6314219-.3975535.7018448-.7647164.2712708-1.5624095.4150778-3.1442861.43-4.73.0091444-.2750652-.1000825-.5408507-.3-.73-4.2248126-3.8617904-9.3082807-6.6623254-14.83-8.17-1.0208148-.3396891-1.7253418-1.275078-1.77-2.35.2471486-.7455059.9662108-1.2303593 1.75-1.18 4.9738722.3950735 9.7035856 2.3197944 13.54 5.51.2988206.2422924.7106227.290399 1.0572442.1235072s.5658178-.5188125.5627558-.9035072v-3.36c.0746698-7.03186249-5.3535392-12.89889194-12.37-13.37zm-20.38 43.95c.7443213-1.994707 1.8799071-3.8204842 3.34-5.37.7889142-.7174143 2.0019338-.6897157 2.7572794.0629608.7553455.7526764.7873378 1.9655905.0727206 2.7570392l-2.52 4.22c-.3498646 1.0476748-1.4808448 1.6154-2.53 1.27-.5753816-.1965672-1.0334543-.6389786-1.2499108-1.2071768s-.1688462-1.2032509.1299108-1.7328232zm17.34-38.55c.0450498-.13006207.105478-.25427575.18-.37.3252132-.53093811.8803878-.87884755 1.5-.94.9729804-.12000477 1.9570196-.12000477 2.93 0 .6195605.06130374 1.1746732.40917436 1.5.94.01.01.01.02.02.03.2521577.41290149.3379505.90621012.24 1.38 0 .01-.01.02-.01.03-.2158594.97658449-1.1239482 1.64051732-2.12 1.55h-2.19c-.9960518.09051732-1.9041406-.57341551-2.12-1.55 0-.01-.01-.02-.01-.03-.0699725-.34739733-.0422806-.70739137.08-1.04z" fill="#24ae5f"/><path id="Shape" d="m37.84 11.01c4.9738722.3950735 9.7035856 2.3197944 13.54 5.51.2988206.2422924.7106227.290399 1.0572442.1235072s.5658178-.5188125.5627558-.9035072v-1.36c.0746698-7.03186249-5.3535392-12.89889194-12.37-13.37-3.5529562-.16893752-7.0201899 1.12397707-9.5950733 3.57795617s-4.0329269 5.85507403-4.0349267 9.41204383c-.0022863-3.5568789-1.4604184-6.95780258-4.0352361-9.41171912-2.5748178-2.45391655-6.0418846-3.74692795-9.5947639-3.57828088-7.01646085.47110806-12.44466985 6.33813751-12.37 13.37v1.36c-.003062.3846947.21613427.7366154.56275579.9035072s.75842357.1187852 1.05724421-.1235072c3.83641443-3.1902056 8.5661278-5.1149265 13.54-5.51.7807001-.0502598 1.4980752.4293566 1.75 1.17-.0088481.4729757-.1585627.9325647-.43 1.32.1930213.1911449.3400601.4236713.43.68v.01c-.0446582 1.074922-.7491852 2.0103109-1.77 2.35-5.5217193 1.5076746-10.60518735 4.3082096-14.83 8.17-.10662512.0999426-.18875495.2231373-.24.36.05770084 1.0401139.18128201 2.0755237.37 3.1.07042291.3671629.34205596.663129.70184477.7647164.35978881.1015875.74610208-.0086056.99815523-.2847164 3.47250569-3.7991713 8.0641454-6.3944459 13.11-7.41.6872446-.1144257 1.375853.1957951 1.7454993.7863542.3696462.590559.3477515 1.3455022-.0554993 1.9136458.3115072.4202901.4102667.9613721.2673238 1.4646095-.1429429.5032373-.511392.9116103-.9973238 1.1053905-5.5359988 1.8597809-10.37408337 5.3618984-13.87 10.04.48625344 2.0770175 1.29614861 4.0646353 2.4 5.89.21369873.3114387.58463848.4759002.95891868.4251503.37428021-.0507499.68803184-.3080508.81108132-.6651503 2.04605517-6.2754201 7.0073044-11.169575 13.31-13.13.8718948-.2680622 1.7976598.2126235 2.08 1.08l.01.04c.1772558.5189686.0954768 1.0914218-.22 1.54.2836953.4073131.3803866.9162151.2658464 1.3991928-.1145402.4829778-.4294581.8942649-.8658464 1.1308072-5.1635432 2.8458091-9.0052079 7.6030107-10.7 13.25 5.965 6.828 11.084 4.515 14.85 9.13.1865107.227938.4654801.3601286.76.3601286s.5734893-.1321906.76-.3601286c3.789-4.64 8.84-2.254 14.85-9.13-1.6947921-5.6469893-5.5364568-10.4041909-10.7-13.25-.4361443-.2367717-.7508442-.6480469-.8653602-1.1309225-.1145159-.4828756-.0180141-.991669.2653602-1.3990775-.4227271-.5956291-.424511-1.3929281-.0044536-1.9904429.4200574-.5975149 1.1708953-.8657151 1.8744536-.6695571 6.3026956 1.960425 11.2639448 6.8545799 13.31 13.13.1230495.3570995.4368011.6144004.8110813.6651503s.74522-.1137116.9589187-.4251503c1.1038514-1.8253647 1.9137466-3.8129825 2.4-5.89-3.4959166-4.6781016-8.3340012-8.1802191-13.87-10.04-.486217-.1934595-.8549564-.6018376-.9979393-1.1052157s-.0439791-1.0446171.2679393-1.4647843c-.4032508-.5681436-.4251455-1.3230868-.0554993-1.9136458.3696463-.5905591 1.0582547-.9007799 1.7454993-.7863542 5.0458546 1.0155541 9.6374943 3.6108287 13.11 7.41.2520531.2761108.6383664.3863039.9981552.2847164.3597888-.1015874.6314219-.3975535.7018448-.7647164.188718-1.0244763.3122992-2.0598861.37-3.1-.0512451-.1368627-.1333749-.2600574-.24-.36-4.2248126-3.8617904-9.3082807-6.6623254-14.83-8.17-1.0208148-.3396891-1.7253418-1.275078-1.77-2.35v-.01c.0899399-.2563287.2369787-.4888551.43-.68-.2745903-.385854-.4246314-.846445-.43-1.32.2519248-.7406434.9692999-1.2202598 1.75-1.17zm-.32-5.53c0-.01-.01-.02-.01-.03-.0699725-.34739733-.0422806-.70739137.08-1.04-.021-.042.03-.05.03-.09.2835639-.6793349.9173897-1.14798189 1.65-1.22.9729804-.12000477 1.9570196-.12000477 2.93 0 .5566999.05243678 1.0653499.33758651 1.4005435.78514614.3351936.44755964.4657412 1.01588397.3594565 1.56485386 0 .01-.01.02-.01.03-.0439566.20790008-.1216506.40720219-.23.59.1020261.1752155.1794207.36365456.23.56.0579574.26993438.0613573.54873252.01.82 0 .01-.01.02-.01.03-.2158594.97658449-1.1239482 1.64051732-2.12 1.55h-2.19c-.9960518.09051732-1.9041406-.57341551-2.12-1.55 0-.01-.01-.02-.01-.03-.0948469-.47383414-.0092513-.96600903.24-1.38-.1086607-.18264597-.1863754-.382001-.23-.59zm-11.1 36.93-2.52 4.22c-.2716816.8185751-1.0375179 1.3707833-1.9 1.37-.7220095-.0044836-1.3873569-.3919472-1.7475741-1.0176958-.3602172-.6257487-.3611408-1.3956931-.0024259-2.0223042-.2696899-.4858457-.3240715-1.06229-.15-1.59.7393299-2.1528042 1.9291047-4.1232621 3.49-5.78.7116535-.7047884 1.8349082-.7744818 2.6282266-.1630708.7933183.6114109 1.0120407 1.7153669.5117734 2.5830708.4515537.7780001.3244186 1.7622713-.31 2.4z" fill="#4fba6f"/><path id="Shape" d="m28 9.01v13.99c0 .5522847-.4477153 1-1 1s-1-.4477153-1-1v-13.99c.6599274 1.5808718.9998159 3.2769151 1 4.99.0001841-1.7130849.3400726-3.4091282 1-4.99z" fill="#4c8056"/></g></svg>