<?xml version="1.0" encoding="iso-8859-1"?>
<!-- Generator: Adobe Illustrator 19.0.0, SVG Export Plug-In . SVG Version: 6.00 Build 0)  -->
<svg version="1.1" id="Capa_1" xmlns="http://www.w3.org/2000/svg" xmlns:xlink="http://www.w3.org/1999/xlink" x="0px" y="0px"
	 viewBox="0 0 496 496" style="enable-background:new 0 0 496 496;" xml:space="preserve">
<path style="fill:#FFA64D;" d="M222.68,173.664C176,174.896,136,166.896,104,158.896l64-40c0,0-69.56-39.208-72-38.864
	C41.6,87.856,0,135.176,0,190.896c0,61.76,50.24,112,112,112s112-50.24,112-112C224,185.096,223.552,179.304,222.68,173.664z"/>
<g>
	<rect x="288" y="438.896" style="fill:#333333;" width="16" height="16"/>
	<rect x="320" y="406.896" style="fill:#333333;" width="16" height="16"/>
	<rect x="200" y="446.896" style="fill:#333333;" width="16" height="16"/>
	<rect x="88" y="446.896" style="fill:#333333;" width="16" height="16"/>
	<rect x="128" y="398.896" style="fill:#333333;" width="16" height="16"/>
	<path style="fill:#333333;" d="M399.56,478.896c-4.32-57.776-55.008-106.824-127.112-122.672
		c1.816-38.384,9.608-75.808,23.288-111.68c6.464,23.504,4.12,48.744-6.896,70.776l-8.64,17.272l18.328-6.112
		c28.84-9.608,52.456-31.096,64.928-58.544c19.92,16.52,35.488,37.88,45.112,61.928l6.616,16.536l7.968-15.928
		c13.624-27.24,11.016-59.216-5.816-83.624l66.368,19.912l-4.016-14.064c-10.664-37.312-38.696-67.544-75.08-81.008
		c18.936-0.088,37.976,2.096,56.664,6.768l33.664,8.416l-7.776-15.552c-16.232-32.472-45.488-57.072-80.264-67.504l-13.408-4.024
		c6-4.2,12.192-8.152,18.504-11.792L404,74.136c-11.504,6.624-22.608,14.192-33,22.504l-11.912,9.528l43.208,12.96
		c24.536,7.36,45.952,22.752,60.824,43.304c-31.744-7.648-64.168-8.808-96.432-3.44l-30.04,5l61.888,22.496
		c27.008,9.832,48.792,30.28,60.48,56.144L363.92,214.12l32.48,32.488c15.744,15.744,22.272,37.856,18.392,58.96
		c-10.864-19.92-25.64-37.6-43.432-51.832l-15.32-12.248l-3.632,10.88c-7.224,21.68-22.312,39.896-41.808,51.208
		c7.216-24.44,6.16-50.808-3.288-74.848C319.368,224.144,328,212.552,328,198.896c0-7.888-2.976-15.024-7.72-20.6
		c9.368-5.592,15.72-15.72,15.72-27.4c0-17.648-14.352-32-32-32c-13.952,0-25.712,9.024-30.088,21.504
		c-5.112-3.472-11.28-5.504-17.912-5.504c-17.648,0-32,14.352-32,32h-11.36c-29.992,0-59.832-3.664-88.896-10.904l60.592-37.864
		l-91.48-45.744l15.456-5.16c22.616-7.52,46.824-5.816,68.144,4.84l45.24,22.616l-15.928-47.784
		c28.376,16,49.552,42.736,58.544,74.192l7.688-2.192h8v-7.504c0-32.08,15.032-62.184,40-81.544V66.32l38.12-13.864
		c29.968-10.896,62.504-10.472,91.824,0.808c-10.056,3.456-19.912,7.512-29.432,12.136l6.984,14.392
		c12.792-6.2,26.24-11.336,39.96-15.256l25-7.16l-16.48-9.416c-37.632-21.504-82.576-25.344-123.32-10.528L336,43.472V1.104
		l-11.968,6.84c-29.6,16.912-50.192,45.648-57.28,78.272c-13.648-24.088-34.144-43.976-59.264-56.528l-29.176-14.584l16,48
		l-10.696-5.352c-25.152-12.568-53.688-14.6-80.36-5.704l-52.104,17.36l100.52,50.256l-67.16,41.976l22.68,6.488
		c34.296,9.8,69.776,14.768,105.448,14.768h15.808c3.232,5.536,8.008,10,13.816,12.784c-33.92,46.208-53.944,101.608-57.592,158.752
		c-76.168,13.4-131.648,64.304-136.216,124.464H0v16h496v-16H399.56z M226.152,254.52c10.976,12.376,25.936,20.584,42.168,23.288
		c-3.528,13.464-6.256,27.112-8.264,40.896c-17.008-0.952-32.88-7.952-45.024-20.088l-3.832-3.832
		C215.168,281.016,220.16,267.552,226.152,254.52z M264.12,197.72c-0.016,0.4-0.12,0.776-0.12,1.176
		c0,13.728,8.736,25.368,20.904,29.904c-4.576,11.056-8.632,22.248-12.128,33.584c-14.824-1.952-28.512-9.808-37.576-21.896
		l-1.24-1.648c7.584-14.136,16.376-27.656,26.32-40.376C261.592,198.288,262.864,198.056,264.12,197.72z M296,214.896
		c-8.824,0-16-7.176-16-16s7.176-16,16-16s16,7.176,16,16S304.824,214.896,296,214.896z M304,134.896c8.824,0,16,7.176,16,16
		s-7.176,16-16,16s-16-7.176-16-16S295.176,134.896,304,134.896z M256,150.896c8.824,0,16,7.176,16,16s-7.176,16-16,16
		s-16-7.176-16-16S247.176,150.896,256,150.896z M184.056,370.784c-0.008,0.856-0.056,1.712-0.056,2.568v41.544h16v-41.544
		c0-2.544,0.096-5.072,0.16-7.608c6.744,3.888,13.784,7.224,21.152,9.832l5.336-15.08c-9.016-3.192-17.52-7.576-25.432-12.936
		c1.08-11.776,2.896-23.456,5.424-34.968c14.256,13.016,32.168,20.688,51.36,22.016c-1.08,10.552-1.624,21.2-1.824,31.896
		c-4.896-0.344-9.784-0.888-14.592-1.864l-3.184,15.672c5.792,1.184,11.688,1.816,17.6,2.184v32.4h16v-41.208
		c0-0.392,0.032-0.784,0.032-1.184c62.992,14.832,107.168,57.016,111.52,106.392H64.472
		C69.064,427.432,117.424,383.664,184.056,370.784z"/>
</g>
<g>
</g>
<g>
</g>
<g>
</g>
<g>
</g>
<g>
</g>
<g>
</g>
<g>
</g>
<g>
</g>
<g>
</g>
<g>
</g>
<g>
</g>
<g>
</g>
<g>
</g>
<g>
</g>
<g>
</g>
</svg>
